<svg viewBox="0 0 24 24" version="1.1" xmlns="http://www.w3.org/2000/svg">
<path fill="#ed7425" style="fill: var(--color1, #ed7425)" d="M11.418 1.714c-0 0-0.001 0-0.002 0-0.212 0-0.383 0.172-0.383 0.383 0 0.001 0 0.001 0 0.002v-0 2.299c0.001 0.211 0.172 0.382 0.383 0.382 0.001 0 0.001 0 0.002 0h-0c0.211-0.001 0.381-0.171 0.382-0.382v-2.299c0-0 0-0.001 0-0.002 0-0.211-0.171-0.382-0.382-0.383h-0z"></path>
<path fill="#ed7425" style="fill: var(--color1, #ed7425)" d="M17.187 3.283c-0.004-0-0.009-0-0.014-0-0.14 0-0.263 0.075-0.33 0.188l-0.001 0.002-1.148 1.991c-0.032 0.055-0.052 0.121-0.052 0.192 0 0.141 0.076 0.263 0.188 0.33l0.002 0.001c0.055 0.032 0.121 0.052 0.192 0.052 0.141 0 0.263-0.076 0.33-0.188l0.001-0.002 1.151-1.991c0.032-0.055 0.051-0.121 0.051-0.191 0-0.141-0.077-0.265-0.191-0.331l-0.002-0.001c-0.051-0.030-0.112-0.049-0.177-0.051l-0.001-0z"></path>
<path fill="#ed7425" style="fill: var(--color1, #ed7425)" d="M5.61 3.238c-0.057 0.006-0.109 0.023-0.155 0.049l0.002-0.001c-0.116 0.067-0.192 0.191-0.192 0.332 0 0.070 0.019 0.136 0.052 0.193l-0.001-0.002 1.151 1.991c0.067 0.116 0.191 0.192 0.332 0.192 0.070 0 0.136-0.019 0.193-0.052l-0.002 0.001c0.115-0.068 0.19-0.19 0.19-0.331 0-0.071-0.019-0.137-0.053-0.194l0.001 0.002-1.148-1.991c-0.067-0.115-0.191-0.191-0.332-0.191-0.014 0-0.027 0.001-0.040 0.002l0.002-0z"></path>
<path fill="#ed7425" style="fill: var(--color1, #ed7425)" d="M1.425 7.437c-0.003-0-0.006-0-0.010-0-0.141 0-0.265 0.077-0.331 0.191l-0.001 0.002c-0.032 0.055-0.052 0.121-0.052 0.192 0 0.141 0.076 0.263 0.188 0.33l0.002 0.001 1.991 1.148c0.055 0.032 0.121 0.052 0.192 0.052 0.141 0 0.263-0.076 0.33-0.188l0.001-0.002c0.032-0.055 0.051-0.121 0.051-0.191 0-0.141-0.077-0.265-0.191-0.331l-0.002-0.001-1.988-1.151c-0.052-0.030-0.114-0.049-0.18-0.051h-0.001z"></path>
<path fill="#ed7425" style="fill: var(--color1, #ed7425)" d="M19.019 5.633c-0.102 0.003-0.193 0.046-0.26 0.113l-0.812 0.812c-0.070 0.069-0.113 0.165-0.113 0.271s0.043 0.202 0.113 0.271l0 0c0.069 0.069 0.165 0.111 0.27 0.111s0.201-0.043 0.27-0.111l-0 0 0.814-0.812c0.070-0.069 0.113-0.165 0.113-0.271s-0.043-0.202-0.113-0.271l-0-0c-0.069-0.070-0.166-0.113-0.272-0.113-0.004 0-0.008 0-0.011 0l0.001-0z"></path>
<path fill="#ed7425" style="fill: var(--color1, #ed7425)" d="M14.167 2.848c-0.166 0.011-0.302 0.126-0.344 0.28l-0.001 0.003-0.297 1.108c-0.008 0.030-0.013 0.064-0.013 0.099 0 0.177 0.119 0.325 0.282 0.37l0.003 0.001c0.030 0.008 0.064 0.013 0.099 0.013 0.177 0 0.325-0.119 0.37-0.282l0.001-0.003 0.297-1.108c0.008-0.030 0.013-0.064 0.013-0.099 0-0.177-0.119-0.325-0.282-0.37l-0.003-0.001c-0.029-0.008-0.063-0.013-0.097-0.013-0.010 0-0.019 0-0.028 0.001l0.001-0z"></path>
<path fill="#ed7425" style="fill: var(--color1, #ed7425)" d="M8.63 2.848c-0.035 0.001-0.069 0.006-0.102 0.015l0.003-0.001c-0.165 0.045-0.284 0.194-0.284 0.37 0 0.034 0.005 0.068 0.013 0.099l-0.001-0.003 0.297 1.111c0.045 0.165 0.194 0.285 0.37 0.285 0.035 0 0.069-0.005 0.102-0.014l-0.003 0.001c0.165-0.045 0.285-0.194 0.285-0.37 0-0.035-0.005-0.069-0.014-0.102l0.001 0.003-0.297-1.111c-0.046-0.164-0.194-0.283-0.37-0.283-0 0-0.001 0-0.001 0h0z"></path>
<path fill="#ed7425" style="fill: var(--color1, #ed7425)" d="M3.792 5.633c-0.102 0.003-0.193 0.046-0.26 0.113l-0 0c-0.070 0.069-0.113 0.165-0.113 0.271s0.043 0.202 0.113 0.271l0 0 0.814 0.812c0.069 0.069 0.165 0.111 0.27 0.111s0.201-0.043 0.27-0.111l-0 0c0.070-0.069 0.113-0.165 0.113-0.271s-0.043-0.202-0.113-0.271l-0.812-0.812c-0.069-0.070-0.166-0.113-0.272-0.113-0.004 0-0.008 0-0.011 0l0.001-0z"></path>
<path fill="#febe40" style="fill: var(--color2, #febe40)" d="M11.404 5.546c-3.579 0.007-6.484 2.918-6.484 6.456s2.905 6.445 6.484 6.453c2.322 0.004 4.368-1.21 5.52-3.040 0.030-0.048 0.050-0.104 0.056-0.165l0-0.002 0.526-5.37c0.001-0.012 0.002-0.026 0.002-0.040 0-0.049-0.009-0.095-0.026-0.138l0.001 0.003c-0.94-2.435-3.312-4.163-6.080-4.157z"></path>
<path fill="#ed7425" style="fill: var(--color1, #ed7425)" d="M11.418 19.221c-0 0-0.001 0-0.002 0-0.212 0-0.383 0.172-0.383 0.383 0 0.001 0 0.001 0 0.002v-0 2.296c0 0 0 0.001 0 0.002 0 0.212 0.172 0.383 0.383 0.383 0.001 0 0.001 0 0.002 0h-0c0.211-0.001 0.382-0.172 0.382-0.383 0-0.001 0-0.001 0-0.002v0-2.296c0-0 0-0.001 0-0.002 0-0.211-0.171-0.382-0.382-0.383h-0z"></path>
<path fill="#ed7425" style="fill: var(--color1, #ed7425)" d="M16.050 17.962c-0.008-0.001-0.017-0.001-0.026-0.001-0.071 0-0.137 0.019-0.194 0.053l0.002-0.001c-0.115 0.068-0.19 0.19-0.19 0.331 0 0.071 0.019 0.137 0.053 0.194l-0.001-0.002 1.148 1.991c0.067 0.116 0.191 0.192 0.332 0.192 0.070 0 0.136-0.019 0.193-0.052l-0.002 0.001c0.116-0.067 0.192-0.191 0.192-0.332 0-0.070-0.019-0.136-0.052-0.193l0.001 0.002-1.151-1.991c-0.063-0.109-0.174-0.183-0.304-0.192l-0.001-0z"></path>
<path fill="#ed7425" style="fill: var(--color1, #ed7425)" d="M6.809 18.008c-0.003-0-0.006-0-0.010-0-0.141 0-0.265 0.077-0.331 0.191l-0.001 0.002-1.151 1.991c-0.032 0.055-0.051 0.121-0.051 0.191 0 0.141 0.077 0.265 0.191 0.331l0.002 0.001c0.055 0.032 0.121 0.051 0.191 0.051 0.141 0 0.265-0.077 0.331-0.191l0.001-0.002 1.148-1.991c0.032-0.055 0.052-0.121 0.052-0.192 0-0.141-0.076-0.263-0.188-0.33l-0.002-0.001c-0.052-0.030-0.114-0.049-0.18-0.051h-0.001z"></path>
<path fill="#ed7425" style="fill: var(--color1, #ed7425)" d="M3.368 14.648c-0.058 0.006-0.111 0.024-0.157 0.052l0.002-0.001-1.991 1.148c-0.115 0.068-0.19 0.19-0.19 0.331 0 0.071 0.019 0.137 0.053 0.194l-0.001-0.002c0.067 0.116 0.191 0.192 0.332 0.192 0.070 0 0.136-0.019 0.193-0.052l-0.002 0.001 1.988-1.148c0.116-0.067 0.192-0.191 0.192-0.332 0-0.070-0.019-0.136-0.052-0.193l0.001 0.002c-0.067-0.117-0.191-0.194-0.333-0.194-0.012 0-0.024 0.001-0.036 0.002l0.002-0z"></path>
<path fill="#ed7425" style="fill: var(--color1, #ed7425)" d="M18.205 16.789c-0.101 0.003-0.191 0.045-0.257 0.11l0-0c-0.070 0.069-0.113 0.165-0.113 0.271s0.043 0.202 0.113 0.271l0.812 0.812c0.069 0.070 0.165 0.113 0.271 0.113s0.202-0.043 0.271-0.113l0-0c0.069-0.069 0.111-0.165 0.111-0.27s-0.043-0.201-0.111-0.27l-0.814-0.814c-0.069-0.068-0.164-0.111-0.269-0.111-0.005 0-0.010 0-0.014 0l0.001-0z"></path>
<path fill="#ed7425" style="fill: var(--color1, #ed7425)" d="M13.896 19.277c-0.035 0.001-0.069 0.006-0.102 0.015l0.003-0.001c-0.165 0.045-0.285 0.194-0.285 0.37 0 0.035 0.005 0.069 0.014 0.102l-0.001-0.003 0.297 1.109c0.045 0.165 0.194 0.285 0.37 0.285 0.035 0 0.069-0.005 0.102-0.014l-0.003 0.001c0.165-0.045 0.285-0.194 0.285-0.37 0-0.035-0.005-0.069-0.014-0.102l0.001 0.003-0.297-1.108c-0.045-0.166-0.194-0.286-0.37-0.286v0z"></path>
<path fill="#ed7425" style="fill: var(--color1, #ed7425)" d="M8.905 19.277c-0.167 0.010-0.304 0.125-0.347 0.28l-0.001 0.003-0.297 1.111c-0.008 0.030-0.013 0.064-0.013 0.099 0 0.177 0.119 0.325 0.282 0.37l0.003 0.001c0.030 0.008 0.064 0.013 0.099 0.013 0.177 0 0.325-0.119 0.37-0.282l0.001-0.003 0.297-1.111c0.008-0.030 0.013-0.064 0.013-0.099 0-0.177-0.119-0.325-0.282-0.37l-0.003-0.001c-0.029-0.008-0.062-0.012-0.097-0.012-0.009 0-0.017 0-0.026 0.001l0.001-0z"></path>
<path fill="#ed7425" style="fill: var(--color1, #ed7425)" d="M4.604 16.789c-0.101 0.003-0.191 0.045-0.257 0.11l-0.814 0.814c-0.069 0.069-0.111 0.165-0.111 0.27s0.043 0.201 0.111 0.27l-0-0c0.069 0.070 0.165 0.113 0.271 0.113s0.202-0.043 0.271-0.113l0.812-0.812c0.070-0.069 0.113-0.165 0.113-0.271s-0.043-0.202-0.113-0.271l-0-0c-0.069-0.068-0.164-0.111-0.269-0.111-0.005 0-0.010 0-0.014 0l0.001-0z"></path>
<path fill="#eda824" style="fill: var(--color3, #eda824)" d="M14.61 8.425c-1.609 0-2.931 1.323-2.931 2.932 0 0.094 0.037 0.17 0.046 0.261-0.002 0.001-0.003 0.001-0.005 0.002-0.553 0.398-1.004 1.042-1.234 1.884-0.001 0.002-0.003 0.011-0.005 0.020l-0.001 0.006c-0.011 0.045-0.019 0.091-0.025 0.137-0.001 0.006-0.131 0.812 0.31 1.627 0.464 0.856 1.523 1.509 2.993 1.522-0.047-0.002 0.835 0.020 1.948 0.022 0.471-0.413 0.882-0.891 1.217-1.422 0.030-0.048 0.051-0.104 0.057-0.165l0-0.002 0.526-5.37c0.001-0.012 0.002-0.025 0.002-0.039 0-0.049-0.009-0.096-0.026-0.139l0.001 0.003c-0.168-0.436-0.384-0.849-0.639-1.234-0.236 0.139-0.46 0.3-0.668 0.48-0.461-0.302-0.977-0.524-1.567-0.524z"></path>
<path fill="#d0e2ee" style="fill: var(--color4, #d0e2ee)" d="M17.996 9.264c-0.832 0-1.568 0.42-2.011 1.062-0.338-0.411-0.849-0.677-1.422-0.677-1.010 0-1.838 0.828-1.838 1.838 0 0.228 0.046 0.446 0.124 0.649-0.134 0.051-0.271 0.117-0.406 0.214-0.338 0.244-0.643 0.652-0.807 1.252-0.003 0.014-0.006 0.030-0.008 0.047l-0 0.002c0 0-0.072 0.486 0.192 0.973s0.893 0.94 1.991 0.95c0.010 0 1.25 0.050 2.811 0.016 1.55-0.033 3.387-0.147 4.699-0.489 0.015-0.001 0.572-0.034 1.055-0.422 0.245-0.197 0.47-0.498 0.554-0.902s0.033-0.889-0.189-1.468c-0.005-0.014-0.010-0.025-0.015-0.036l0.001 0.002c0 0-0.219-0.455-0.696-0.778-0.238-0.161-0.555-0.279-0.925-0.296v-0.001c-0.217-0.010-0.454 0.021-0.703 0.094-0.198-1.15-1.203-2.031-2.408-2.031z"></path>
<path fill="#ed7425" style="fill: var(--color1, #ed7425)" d="M1.841 11.6c-0 0-0.001 0-0.002 0-0.212 0-0.383 0.172-0.383 0.383 0 0.001 0 0.001 0 0.002v-0c0.001 0.211 0.172 0.382 0.383 0.382 0.001 0 0.001 0 0.002 0h1.125c0 0 0.001 0 0.002 0 0.211 0 0.382-0.171 0.383-0.382v-0c0-0 0-0.001 0-0.002 0-0.212-0.172-0.383-0.383-0.383-0.001 0-0.001 0-0.002 0h0z"></path>
</svg>
