<svg aria-hidden="true" style="position: absolute; width: 0; height: 0; overflow: hidden;" version="1.1" xmlns="http://www.w3.org/2000/svg" xmlns:xlink="http://www.w3.org/1999/xlink">
<defs>
<symbol id="search" viewBox="0 0 64 64">
<path d="M62.016 54.462l-15.16-12.893c-1.567-1.41-3.243-2.058-4.597-1.995 3.578-4.192 5.74-9.63 5.74-15.573 0-13.255-10.745-24-24-24s-24 10.745-24 24 10.745 24 24 24c5.944 0 11.382-2.162 15.574-5.74-0.063 1.354 0.585 3.030 1.995 4.597l12.893 15.16c2.208 2.453 5.814 2.66 8.014 0.46s1.993-5.806-0.46-8.014zM24 40c-8.836 0-16-7.163-16-16s7.163-16 16-16 16 7.163 16 16-7.163 16-16 16z"></path>
</symbol>
<symbol id="add" viewBox="0 0 64 64">
<path d="M62 24h-22v-22c0-1.105-0.895-2-2-2h-12c-1.105 0-2 0.895-2 2v22h-22c-1.105 0-2 0.895-2 2v12c0 1.105 0.895 2 2 2h22v22c0 1.105 0.895 2 2 2h12c1.105 0 2-0.895 2-2v-22h22c1.105 0 2-0.895 2-2v-12c0-1.105-0.895-2-2-2z"></path>
</symbol>
<symbol id="edit" viewBox="0 0 64 64">
<path d="M54 0c5.523 0 10 4.477 10 10 0 2.251-0.744 4.329-2 6l-4 4-14-14 4-4c1.671-1.256 3.749-2 6-2zM4 46l-4 18 18-4 37-37-14-14-37 37zM44.724 22.724l-28 28-3.447-3.447 28-28 3.447 3.447z"></path>
</symbol>
<symbol id="delete" viewBox="0 0 64 64">
<path d="M8 20v40c0 2.2 1.8 4 4 4h36c2.2 0 4-1.8 4-4v-40h-44zM20 56h-4v-28h4v28zM28 56h-4v-28h4v28zM36 56h-4v-28h4v28zM44 56h-4v-28h4v28z"></path>
<path d="M53 8h-13v-5c0-1.65-1.35-3-3-3h-14c-1.65 0-3 1.35-3 3v5h-13c-1.65 0-3 1.35-3 3v5h52v-5c0-1.65-1.35-3-3-3zM36 8h-12v-3.95h12v3.95z"></path>
</symbol>
<symbol id="close" viewBox="0 0 24 24">
<path d="M18 6L6 18" stroke-width="1.8" stroke-linecap="round" stroke-linejoin="round"/>
<path d="M6 6L18 18" stroke-width="1.8" stroke-linecap="round" stroke-linejoin="round"/>
</symbol>
<symbol id="down" viewBox="0 0 20 20">
<path d="M5 7.5L10 12.5L15 7.5" fill="none" stroke-width="2" stroke-linecap="round" stroke-linejoin="round"/>
</symbol>
<symbol id="up" viewBox="0 0 20 20">
<path d="M5 12.5L10 7.5L15 12.5" fill="none" stroke-width="2" stroke-linecap="round" stroke-linejoin="round"/>
</symbol>
<symbol id="calendar" viewBox="0 0 64 64">
<path d="M20 24h8v8h-8zM32 24h8v8h-8zM44 24h8v8h-8zM8 48h8v8h-8zM20 48h8v8h-8zM32 48h8v8h-8zM20 36h8v8h-8zM32 36h8v8h-8zM44 36h8v8h-8zM8 36h8v8h-8zM52 0v4h-8v-4h-28v4h-8v-4h-8v64h60v-64h-8zM56 60h-52v-44h52v44z"></path>
</symbol>
<symbol id="first" viewBox="0 0 64 64">
<path d="M8 56v-48h8v22l20-20v20l20-20v44l-20-20v20l-20-20v22z"></path>
</symbol>
<symbol id="last" viewBox="0 0 64 64">
<path d="M56 8v48h-8v-22l-20 20v-20l-20 20v-44l20 20v-20l20 20v-22z"></path>
</symbol>
<symbol id="backward" viewBox="0 0 64 64">
<path d="M36 10v20l20-20v44l-20-20v20l-22-22z"></path>
</symbol>
<symbol id="forward" viewBox="0 0 64 64">
<path d="M32 54v-20l-20 20v-44l20 20v-20l22 22z"></path>
</symbol>
<symbol id="prev" viewBox="0 0 64 64">
<path d="M16 56v-48h8v22l20-20v44l-20-20v22z"></path>
</symbol>
<symbol id="next" viewBox="0 0 64 64">
<path d="M48 8v48h-8v-22l-20 20v-44l20 20v-22z"></path>
</symbol>
<symbol id="sort-num-asc" viewBox="0 0 64 64">
<path d="M20 48v-48h-8v48h-10l14 14 14-14h-10z"></path>
<path d="M54 28c-1.105 0-2-0.895-2-2v-22h-2c-1.105 0-2-0.896-2-2s0.895-2 2-2h4c1.105 0 2 0.895 2 2v24c0 1.105-0.895 2-2 2z"></path>
<path d="M58 36h-12c-1.105 0-2 0.895-2 2v12c0 1.105 0.895 2 2 2h10v8h-10c-1.105 0-2 0.895-2 2s0.895 2 2 2h12c1.105 0 2-0.895 2-2v-24c0-1.105-0.895-2-2-2zM48 40h8v8h-8v-8z"></path>
</symbol>

<symbol id="clear-day" viewBox="0 0 32 32">
<path fill="#f9c100" style="fill: var(--color1, #f9c100)" d="M22.023 15.921c0 3.37-2.732 6.102-6.102 6.102s-6.102-2.732-6.102-6.102c0-3.37 2.732-6.102 6.102-6.102s6.102 2.732 6.102 6.102z"></path>
<path fill="#f9c100" style="fill: var(--color1, #f9c100)" d="M15.922 8.156c-0.126 0-0.229-0.102-0.229-0.229v-2.071c0-0.126 0.102-0.229 0.229-0.229s0.229 0.102 0.229 0.229v2.071c0 0.126-0.102 0.229-0.229 0.229z"></path>
<path fill="#f9c100" style="fill: var(--color1, #f9c100)" d="M15.922 26.215c-0.126 0-0.229-0.102-0.229-0.229v-2.071c0-0.127 0.102-0.229 0.229-0.229s0.229 0.102 0.229 0.229v2.071c0 0.127-0.102 0.229-0.229 0.229z"></path>
<path fill="#f9c100" style="fill: var(--color1, #f9c100)" d="M7.928 16.151h-2.071c-0.126 0-0.229-0.102-0.229-0.229s0.102-0.229 0.229-0.229h2.071c0.126 0 0.229 0.102 0.229 0.229s-0.102 0.229-0.229 0.229z"></path>
<path fill="#f9c100" style="fill: var(--color1, #f9c100)" d="M25.987 16.151h-2.071c-0.127 0-0.229-0.102-0.229-0.229s0.102-0.229 0.229-0.229h2.071c0.127 0 0.229 0.102 0.229 0.229s-0.102 0.229-0.229 0.229z"></path>
<path fill="#f9c100" style="fill: var(--color1, #f9c100)" d="M21.574 10.498c-0.059 0-0.117-0.022-0.162-0.067-0.089-0.089-0.089-0.234 0-0.323l1.464-1.464c0.089-0.089 0.234-0.089 0.323 0s0.089 0.234 0 0.323l-1.464 1.464c-0.045 0.045-0.103 0.067-0.162 0.067z"></path>
<path fill="#f9c100" style="fill: var(--color1, #f9c100)" d="M8.805 23.267c-0.059 0-0.117-0.022-0.162-0.067-0.089-0.089-0.089-0.234 0-0.323l1.464-1.464c0.089-0.089 0.234-0.089 0.323 0s0.089 0.234 0 0.323l-1.464 1.464c-0.045 0.045-0.103 0.067-0.162 0.067z"></path>
<path fill="#f9c100" style="fill: var(--color1, #f9c100)" d="M10.269 10.498c-0.059 0-0.117-0.022-0.162-0.067l-1.464-1.464c-0.089-0.089-0.089-0.234 0-0.323s0.234-0.089 0.323 0l1.464 1.464c0.089 0.089 0.089 0.234 0 0.323-0.045 0.045-0.103 0.067-0.162 0.067z"></path>
<path fill="#f9c100" style="fill: var(--color1, #f9c100)" d="M23.039 23.267c-0.059 0-0.117-0.022-0.162-0.067l-1.464-1.464c-0.089-0.089-0.089-0.234 0-0.323s0.234-0.089 0.323 0l1.464 1.464c0.089 0.089 0.089 0.234 0 0.323-0.045 0.045-0.103 0.067-0.162 0.067z"></path>
</symbol>
<symbol id="cloudy" viewBox="0 0 32 32">
<path fill="#62c3f7" style="fill: var(--color2, #62c3f7)" d="M3.504 15.581c-0.012-0.18-0.020-0.361-0.020-0.544 0-4.466 3.62-8.086 8.086-8.086 3.231 0 6.018 1.895 7.313 4.634 0.975-0.693 2.164-1.104 3.452-1.104 2.979 0 5.441 2.182 5.893 5.033 2.051 0.561 3.56 2.433 3.56 4.662 0 2.672-2.166 4.838-4.838 4.838h-21.936c-2.672 0-4.838-2.166-4.838-4.838 0-2.144 1.397-3.96 3.328-4.595z"></path>
</symbol>
<symbol id="fog" viewBox="0 0 32 32">
<path fill="#c6c3c5" style="fill: var(--color3, #c6c3c5)" d="M3.504 15.581c-0.012-0.18-0.020-0.361-0.020-0.544 0-4.466 3.62-8.086 8.086-8.086 3.231 0 6.018 1.895 7.313 4.634 0.975-0.693 2.164-1.104 3.452-1.104 2.979 0 5.441 2.182 5.893 5.033 2.051 0.561 3.56 2.433 3.56 4.662 0 2.672-2.166 4.838-4.838 4.838h-21.936c-2.672 0-4.838-2.166-4.838-4.838 0-2.144 1.397-3.96 3.328-4.595z"></path>
</symbol>
<symbol id="partly-cloudy-day" viewBox="0 0 32 32">
<path fill="#f9c100" style="fill: var(--color1, #f9c100)" d="M27.006 14.977c0 3.765-3.052 6.817-6.817 6.817s-6.817-3.052-6.817-6.817c0-3.765 3.052-6.817 6.817-6.817s6.817 3.052 6.817 6.817z"></path>
<path fill="#f9c100" style="fill: var(--color1, #f9c100)" d="M20.189 6.402c-0.196 0-0.355-0.159-0.355-0.355v-2.313c0-0.196 0.159-0.355 0.355-0.355s0.355 0.159 0.355 0.355v2.313c0 0.196-0.159 0.355-0.355 0.355z"></path>
<path fill="#f9c100" style="fill: var(--color1, #f9c100)" d="M31.433 15.333h-2.314c-0.196 0-0.355-0.159-0.355-0.355s0.159-0.355 0.355-0.355h2.314c0.196 0 0.355 0.159 0.355 0.355s-0.159 0.355-0.355 0.355z"></path>
<path fill="#f9c100" style="fill: var(--color1, #f9c100)" d="M13.874 9.018c-0.091 0-0.182-0.035-0.251-0.104l-1.636-1.636c-0.139-0.139-0.139-0.364 0-0.502s0.364-0.139 0.502 0l1.636 1.636c0.139 0.139 0.139 0.364 0 0.502-0.069 0.070-0.16 0.104-0.251 0.104z"></path>
<path fill="#f9c100" style="fill: var(--color1, #f9c100)" d="M26.504 9.018c-0.091 0-0.182-0.035-0.251-0.104-0.139-0.139-0.139-0.364 0-0.502l1.636-1.636c0.139-0.139 0.364-0.139 0.502 0s0.139 0.364 0 0.502l-1.636 1.636c-0.070 0.070-0.16 0.104-0.251 0.104z"></path>
<path fill="#62c3f7" style="fill: var(--color2, #62c3f7)" d="M3.286 19.771c-0.011-0.168-0.019-0.338-0.019-0.509 0-4.173 3.383-7.556 7.556-7.556 3.019 0 5.624 1.771 6.834 4.331 0.912-0.647 2.023-1.031 3.226-1.031 2.783 0 5.084 2.039 5.508 4.703 1.916 0.524 3.327 2.274 3.327 4.357 0 2.497-2.024 4.521-4.521 4.521h-20.5c-2.497 0-4.521-2.024-4.521-4.521 0-2.004 1.305-3.701 3.11-4.294z"></path>
</symbol>
<symbol id="rain" viewBox="0 0 32 32">
<path fill="#62c3f7" style="fill: var(--color2, #62c3f7)" d="M3.504 10.515c-0.012-0.18-0.020-0.361-0.020-0.544 0-4.466 3.62-8.086 8.086-8.086 3.231 0 6.018 1.895 7.313 4.634 0.975-0.693 2.164-1.104 3.452-1.104 2.979 0 5.441 2.182 5.893 5.033 2.051 0.561 3.56 2.433 3.56 4.661 0 2.672-2.166 4.838-4.838 4.838h-21.936c-2.672 0-4.838-2.166-4.838-4.838 0-2.144 1.397-3.96 3.328-4.594z"></path>
<path fill="#7bd8f7" style="fill: var(--color4, #7bd8f7)" d="M23.167 26.839c-0.198 0-0.359-0.161-0.359-0.359v-3.353c0-0.198 0.161-0.359 0.359-0.359s0.359 0.161 0.359 0.359v3.353c-0 0.199-0.161 0.359-0.359 0.359z"></path>
<path fill="#7bd8f7" style="fill: var(--color4, #7bd8f7)" d="M19.574 30.431c-0.198 0-0.359-0.161-0.359-0.359v-3.353c0-0.198 0.161-0.359 0.359-0.359s0.359 0.161 0.359 0.359v3.353c0 0.199-0.161 0.359-0.359 0.359z"></path>
<path fill="#7bd8f7" style="fill: var(--color4, #7bd8f7)" d="M15.982 26.839c-0.198 0-0.359-0.161-0.359-0.359v-3.353c0-0.198 0.161-0.359 0.359-0.359s0.359 0.161 0.359 0.359v3.353c0 0.199-0.161 0.359-0.359 0.359z"></path>
<path fill="#7bd8f7" style="fill: var(--color4, #7bd8f7)" d="M12.39 30.431c-0.198 0-0.359-0.161-0.359-0.359v-3.353c0-0.198 0.161-0.359 0.359-0.359s0.359 0.161 0.359 0.359v3.353c-0 0.199-0.161 0.359-0.359 0.359z"></path>
<path fill="#7bd8f7" style="fill: var(--color4, #7bd8f7)" d="M8.797 26.839c-0.198 0-0.359-0.161-0.359-0.359v-3.353c0-0.198 0.161-0.359 0.359-0.359s0.359 0.161 0.359 0.359v3.353c0 0.199-0.161 0.359-0.359 0.359z"></path>
</symbol>
<symbol id="showers-day" viewBox="0 0 32 32">
<path fill="#62c3f7" style="fill: var(--color2, #62c3f7)" d="M3.504 8.902c-0.012-0.18-0.020-0.361-0.020-0.544 0-4.466 3.62-8.086 8.086-8.086 3.231 0 6.018 1.895 7.313 4.634 0.975-0.693 2.164-1.104 3.452-1.104 2.979 0 5.441 2.182 5.893 5.033 2.051 0.561 3.56 2.433 3.56 4.662 0 2.672-2.166 4.838-4.838 4.838h-21.936c-2.672-0-4.838-2.166-4.838-4.838 0-2.144 1.397-3.96 3.328-4.595z"></path>
<path fill="#7bd8f7" style="fill: var(--color4, #7bd8f7)" d="M3.946 25.227c-0.039 0-0.078-0.006-0.117-0.020-0.188-0.065-0.287-0.269-0.222-0.457l1.156-3.353c0.064-0.187 0.268-0.288 0.457-0.222 0.188 0.065 0.287 0.269 0.222 0.457l-1.156 3.353c-0.051 0.149-0.19 0.242-0.339 0.242z"></path>
<path fill="#7bd8f7" style="fill: var(--color4, #7bd8f7)" d="M1.716 31.693c-0.039 0-0.078-0.006-0.117-0.020-0.188-0.065-0.287-0.269-0.222-0.457l1.156-3.353c0.064-0.188 0.268-0.288 0.457-0.222 0.188 0.065 0.287 0.269 0.222 0.457l-1.156 3.353c-0.051 0.149-0.19 0.242-0.339 0.242z"></path>
<path fill="#7bd8f7" style="fill: var(--color4, #7bd8f7)" d="M6.299 28.819c-0.039 0-0.078-0.006-0.117-0.020-0.188-0.065-0.287-0.269-0.222-0.457l1.156-3.353c0.064-0.188 0.267-0.288 0.457-0.222 0.188 0.065 0.287 0.269 0.222 0.457l-1.156 3.353c-0.051 0.149-0.19 0.242-0.34 0.242z"></path>
<path fill="#7bd8f7" style="fill: var(--color4, #7bd8f7)" d="M11.13 25.227c-0.039 0-0.078-0.006-0.117-0.020-0.188-0.065-0.287-0.269-0.222-0.457l1.156-3.353c0.064-0.187 0.268-0.288 0.457-0.222 0.188 0.065 0.287 0.269 0.222 0.457l-1.156 3.353c-0.051 0.149-0.19 0.242-0.339 0.242z"></path>
<path fill="#7bd8f7" style="fill: var(--color4, #7bd8f7)" d="M8.901 31.693c-0.039 0-0.078-0.006-0.117-0.020-0.188-0.065-0.287-0.269-0.222-0.457l1.156-3.353c0.064-0.188 0.268-0.288 0.457-0.222 0.188 0.065 0.287 0.269 0.222 0.457l-1.156 3.353c-0.051 0.149-0.19 0.242-0.339 0.242z"></path>
<path fill="#7bd8f7" style="fill: var(--color4, #7bd8f7)" d="M13.484 28.819c-0.039 0-0.078-0.006-0.117-0.020-0.188-0.065-0.287-0.269-0.222-0.457l1.156-3.353c0.064-0.188 0.267-0.288 0.457-0.222 0.188 0.065 0.287 0.269 0.222 0.457l-1.156 3.353c-0.051 0.149-0.19 0.242-0.339 0.242z"></path>
<path fill="#7bd8f7" style="fill: var(--color4, #7bd8f7)" d="M18.315 25.227c-0.039 0-0.078-0.006-0.117-0.020-0.187-0.065-0.287-0.269-0.222-0.457l1.156-3.353c0.065-0.188 0.268-0.287 0.457-0.222 0.187 0.065 0.287 0.269 0.222 0.457l-1.156 3.353c-0.051 0.149-0.19 0.242-0.339 0.242z"></path>
<path fill="#7bd8f7" style="fill: var(--color4, #7bd8f7)" d="M16.085 31.693c-0.039 0-0.078-0.006-0.117-0.020-0.188-0.065-0.287-0.269-0.222-0.457l1.156-3.353c0.065-0.188 0.269-0.287 0.457-0.222s0.287 0.269 0.222 0.457l-1.156 3.353c-0.051 0.149-0.19 0.242-0.339 0.242z"></path>
<path fill="#7bd8f7" style="fill: var(--color4, #7bd8f7)" d="M20.668 28.819c-0.039 0-0.078-0.006-0.117-0.020-0.187-0.065-0.287-0.269-0.222-0.457l1.156-3.353c0.065-0.187 0.268-0.287 0.457-0.222 0.187 0.065 0.287 0.269 0.222 0.457l-1.156 3.353c-0.051 0.149-0.19 0.242-0.339 0.242z"></path>
<path fill="#7bd8f7" style="fill: var(--color4, #7bd8f7)" d="M25.5 25.227c-0.039 0-0.078-0.006-0.117-0.020-0.187-0.065-0.287-0.269-0.222-0.457l1.156-3.353c0.065-0.188 0.269-0.287 0.457-0.222s0.287 0.269 0.222 0.457l-1.156 3.353c-0.051 0.149-0.19 0.242-0.339 0.242z"></path>
<path fill="#7bd8f7" style="fill: var(--color4, #7bd8f7)" d="M23.27 31.693c-0.039 0-0.078-0.006-0.117-0.020-0.187-0.065-0.287-0.269-0.222-0.457l1.156-3.353c0.065-0.188 0.269-0.287 0.457-0.222s0.287 0.269 0.222 0.457l-1.156 3.353c-0.051 0.149-0.19 0.242-0.339 0.242z"></path>
</symbol>
<symbol id="snow" viewBox="0 0 32 32">
<path fill="#62c3f7" style="fill: var(--color2, #62c3f7)" d="M3.504 8.834c-0.012-0.18-0.020-0.361-0.020-0.544 0-4.466 3.62-8.086 8.086-8.086 3.231 0 6.018 1.895 7.313 4.634 0.975-0.693 2.164-1.104 3.452-1.104 2.979 0 5.441 2.182 5.893 5.033 2.051 0.561 3.56 2.433 3.56 4.662 0 2.672-2.166 4.838-4.838 4.838h-21.936c-2.672 0-4.838-2.166-4.838-4.838 0-2.144 1.397-3.96 3.328-4.595z"></path>
<path fill="#7bd8f7" style="fill: var(--color4, #7bd8f7)" d="M7.119 23.123h1.056l-0.528 0.915c-0.099 0.172-0.040 0.392 0.132 0.491 0.057 0.033 0.118 0.048 0.179 0.048 0.124 0 0.245-0.065 0.312-0.18l0.528-0.914 0.528 0.914c0.067 0.116 0.187 0.18 0.312 0.18 0.061 0 0.123-0.015 0.179-0.048 0.172-0.099 0.231-0.319 0.132-0.491l-0.528-0.915h1.056c0.198 0 0.359-0.161 0.359-0.359s-0.161-0.359-0.359-0.359h-1.056l0.528-0.914c0.099-0.172 0.040-0.392-0.132-0.491s-0.392-0.040-0.491 0.132l-0.528 0.914-0.528-0.914c-0.099-0.172-0.319-0.231-0.491-0.132s-0.231 0.319-0.132 0.491l0.528 0.914h-1.056c-0.198 0-0.359 0.161-0.359 0.359s0.161 0.359 0.359 0.359z"></path>
<path fill="#7bd8f7" style="fill: var(--color4, #7bd8f7)" d="M10.476 29.589h-1.056l0.528-0.914c0.099-0.172 0.040-0.392-0.132-0.491s-0.392-0.040-0.491 0.132l-0.528 0.914-0.528-0.914c-0.099-0.172-0.319-0.231-0.491-0.132s-0.231 0.319-0.132 0.491l0.528 0.914h-1.056c-0.198 0-0.359 0.161-0.359 0.359s0.161 0.359 0.359 0.359h1.056l-0.528 0.915c-0.099 0.172-0.040 0.392 0.132 0.491 0.057 0.033 0.118 0.048 0.179 0.048 0.124 0 0.245-0.065 0.312-0.18l0.528-0.914 0.528 0.914c0.067 0.116 0.187 0.18 0.312 0.18 0.061 0 0.123-0.015 0.179-0.048 0.172-0.099 0.231-0.319 0.132-0.491l-0.528-0.915h1.056c0.198 0 0.359-0.161 0.359-0.359-0.001-0.199-0.162-0.359-0.36-0.359z"></path>
<path fill="#7bd8f7" style="fill: var(--color4, #7bd8f7)" d="M13.012 26.715h1.056c0.198 0 0.359-0.161 0.359-0.359s-0.161-0.359-0.359-0.359h-1.056l0.528-0.914c0.099-0.172 0.040-0.392-0.132-0.491s-0.392-0.040-0.491 0.132l-0.528 0.914-0.528-0.914c-0.099-0.172-0.319-0.231-0.491-0.132s-0.231 0.319-0.132 0.491l0.528 0.914h-1.056c-0.198 0-0.359 0.161-0.359 0.359s0.161 0.359 0.359 0.359h1.056l-0.528 0.915c-0.099 0.172-0.040 0.392 0.132 0.491 0.057 0.033 0.118 0.048 0.179 0.048 0.124 0 0.245-0.065 0.312-0.18l0.528-0.914 0.528 0.914c0.067 0.116 0.187 0.18 0.312 0.18 0.061 0 0.123-0.015 0.179-0.048 0.172-0.099 0.231-0.319 0.132-0.491l-0.529-0.915z"></path>
<path fill="#7bd8f7" style="fill: var(--color4, #7bd8f7)" d="M14.304 23.123h1.056l-0.528 0.915c-0.099 0.172-0.040 0.392 0.132 0.491 0.057 0.033 0.118 0.048 0.179 0.048 0.124 0 0.245-0.064 0.312-0.18l0.528-0.915 0.528 0.914c0.067 0.116 0.187 0.18 0.312 0.18 0.061 0 0.123-0.015 0.179-0.048 0.172-0.099 0.231-0.319 0.132-0.491l-0.528-0.915h1.055c0.198 0 0.359-0.161 0.359-0.359s-0.161-0.359-0.359-0.359h-1.055l0.528-0.914c0.099-0.172 0.040-0.392-0.132-0.491s-0.392-0.041-0.491 0.132l-0.528 0.915-0.528-0.914c-0.099-0.172-0.32-0.231-0.491-0.132s-0.231 0.319-0.132 0.491l0.528 0.914h-1.056c-0.198 0-0.359 0.161-0.359 0.359s0.161 0.359 0.359 0.359z"></path>
<path fill="#7bd8f7" style="fill: var(--color4, #7bd8f7)" d="M17.66 29.589h-1.055l0.528-0.914c0.099-0.172 0.040-0.392-0.132-0.491s-0.392-0.041-0.491 0.132l-0.528 0.914-0.528-0.914c-0.099-0.172-0.32-0.231-0.491-0.132s-0.231 0.319-0.132 0.491l0.528 0.914h-1.056c-0.198 0-0.359 0.161-0.359 0.359s0.161 0.359 0.359 0.359h1.056l-0.528 0.915c-0.099 0.172-0.040 0.392 0.132 0.491 0.057 0.033 0.118 0.048 0.179 0.048 0.124 0 0.245-0.064 0.312-0.18l0.528-0.914 0.528 0.914c0.067 0.116 0.187 0.18 0.312 0.18 0.061 0 0.123-0.015 0.179-0.048 0.172-0.099 0.231-0.319 0.132-0.491l-0.528-0.915h1.055c0.198 0 0.359-0.161 0.359-0.359s-0.161-0.359-0.359-0.359z"></path>
<path fill="#7bd8f7" style="fill: var(--color4, #7bd8f7)" d="M20.197 26.715h1.056c0.198 0 0.359-0.161 0.359-0.359s-0.161-0.359-0.359-0.359h-1.055l0.528-0.914c0.099-0.172 0.040-0.392-0.132-0.491s-0.392-0.041-0.491 0.132l-0.528 0.914-0.528-0.914c-0.1-0.172-0.32-0.231-0.491-0.132s-0.231 0.319-0.132 0.491l0.528 0.914h-1.056c-0.198 0-0.359 0.161-0.359 0.359s0.161 0.359 0.359 0.359h1.056l-0.528 0.915c-0.099 0.172-0.040 0.392 0.132 0.491 0.057 0.033 0.118 0.048 0.179 0.048 0.124 0 0.245-0.064 0.312-0.18l0.528-0.914 0.528 0.914c0.067 0.116 0.187 0.18 0.312 0.18 0.061 0 0.123-0.015 0.179-0.048 0.172-0.099 0.231-0.319 0.132-0.491l-0.528-0.915z"></path>
<path fill="#7bd8f7" style="fill: var(--color4, #7bd8f7)" d="M21.489 23.123h1.056l-0.528 0.915c-0.099 0.172-0.040 0.392 0.132 0.491 0.057 0.033 0.118 0.048 0.179 0.048 0.124 0 0.245-0.064 0.312-0.18l0.528-0.914 0.528 0.914c0.067 0.116 0.187 0.18 0.312 0.18 0.061 0 0.123-0.015 0.179-0.048 0.172-0.099 0.231-0.319 0.132-0.491l-0.528-0.915h1.056c0.198 0 0.359-0.161 0.359-0.359s-0.161-0.359-0.359-0.359h-1.055l0.528-0.914c0.099-0.172 0.040-0.392-0.132-0.491s-0.391-0.041-0.491 0.132l-0.528 0.914-0.528-0.914c-0.1-0.172-0.32-0.231-0.491-0.132-0.172 0.099-0.231 0.319-0.132 0.491l0.528 0.914h-1.055c-0.198 0-0.359 0.161-0.359 0.359s0.161 0.359 0.359 0.359z"></path>
<path fill="#7bd8f7" style="fill: var(--color4, #7bd8f7)" d="M24.845 29.589h-1.055l0.528-0.914c0.099-0.172 0.040-0.392-0.132-0.491s-0.391-0.041-0.491 0.132l-0.528 0.914-0.528-0.914c-0.1-0.172-0.32-0.231-0.491-0.132-0.172 0.099-0.231 0.319-0.132 0.491l0.528 0.914h-1.055c-0.198 0-0.359 0.161-0.359 0.359s0.161 0.359 0.359 0.359h1.056l-0.528 0.915c-0.099 0.172-0.040 0.392 0.132 0.491 0.057 0.033 0.118 0.048 0.179 0.048 0.124 0 0.245-0.064 0.312-0.18l0.528-0.914 0.528 0.914c0.067 0.116 0.187 0.18 0.312 0.18 0.061 0 0.123-0.015 0.179-0.048 0.172-0.099 0.231-0.319 0.132-0.491l-0.528-0.915h1.056c0.198 0 0.359-0.161 0.359-0.359s-0.161-0.359-0.359-0.359z"></path>
</symbol>
<symbol id="snow-showers-day" viewBox="0 0 32 32">
<path fill="#62c3f7" style="fill: var(--color2, #62c3f7)" d="M3.504 8.834c-0.012-0.18-0.020-0.361-0.020-0.544 0-4.466 3.62-8.086 8.086-8.086 3.231 0 6.018 1.895 7.313 4.634 0.975-0.693 2.164-1.104 3.452-1.104 2.979 0 5.441 2.182 5.893 5.033 2.051 0.561 3.56 2.433 3.56 4.662 0 2.672-2.166 4.838-4.838 4.838h-21.936c-2.672 0-4.838-2.166-4.838-4.838 0-2.144 1.397-3.96 3.328-4.595z"></path>
<path fill="#7bd8f7" style="fill: var(--color4, #7bd8f7)" d="M10.476 29.589h-1.056l0.528-0.914c0.099-0.172 0.040-0.392-0.132-0.491s-0.392-0.040-0.491 0.132l-0.528 0.914-0.528-0.914c-0.099-0.172-0.319-0.231-0.491-0.132s-0.231 0.319-0.132 0.491l0.528 0.914h-1.056c-0.198 0-0.359 0.161-0.359 0.359s0.161 0.359 0.359 0.359h1.056l-0.528 0.915c-0.099 0.172-0.040 0.392 0.132 0.491 0.057 0.033 0.118 0.048 0.179 0.048 0.124 0 0.245-0.065 0.312-0.18l0.528-0.914 0.528 0.914c0.067 0.116 0.187 0.18 0.312 0.18 0.061 0 0.123-0.015 0.179-0.048 0.172-0.099 0.231-0.319 0.132-0.491l-0.528-0.915h1.056c0.198 0 0.359-0.161 0.359-0.359-0.001-0.199-0.162-0.359-0.36-0.359z"></path>
<path fill="#7bd8f7" style="fill: var(--color4, #7bd8f7)" d="M14.304 23.123h1.056l-0.528 0.915c-0.099 0.172-0.040 0.392 0.132 0.491 0.057 0.033 0.118 0.048 0.179 0.048 0.124 0 0.245-0.064 0.312-0.18l0.528-0.915 0.528 0.914c0.067 0.116 0.187 0.18 0.312 0.18 0.061 0 0.123-0.015 0.179-0.048 0.172-0.099 0.231-0.319 0.132-0.491l-0.528-0.915h1.055c0.198 0 0.359-0.161 0.359-0.359s-0.161-0.359-0.359-0.359h-1.055l0.528-0.914c0.099-0.172 0.040-0.392-0.132-0.491s-0.392-0.041-0.491 0.132l-0.528 0.915-0.528-0.914c-0.099-0.172-0.32-0.231-0.491-0.132s-0.231 0.319-0.132 0.491l0.528 0.914h-1.056c-0.198 0-0.359 0.161-0.359 0.359s0.161 0.359 0.359 0.359z"></path>
<path fill="#7bd8f7" style="fill: var(--color4, #7bd8f7)" d="M24.845 29.589h-1.055l0.528-0.914c0.099-0.172 0.040-0.392-0.132-0.491s-0.391-0.041-0.491 0.132l-0.528 0.914-0.528-0.914c-0.1-0.172-0.32-0.231-0.491-0.132-0.172 0.099-0.231 0.319-0.132 0.491l0.528 0.914h-1.055c-0.198 0-0.359 0.161-0.359 0.359s0.161 0.359 0.359 0.359h1.056l-0.528 0.915c-0.099 0.172-0.040 0.392 0.132 0.491 0.057 0.033 0.118 0.048 0.179 0.048 0.124 0 0.245-0.064 0.312-0.18l0.528-0.914 0.528 0.914c0.067 0.116 0.187 0.18 0.312 0.18 0.061 0 0.123-0.015 0.179-0.048 0.172-0.099 0.231-0.319 0.132-0.491l-0.528-0.915h1.056c0.198 0 0.359-0.161 0.359-0.359s-0.161-0.359-0.359-0.359z"></path>
<path fill="#7bd8f7" style="fill: var(--color4, #7bd8f7)" d="M23.167 26.839c-0.198 0-0.359-0.161-0.359-0.359v-3.353c0-0.198 0.161-0.359 0.359-0.359s0.359 0.161 0.359 0.359v3.353c-0 0.199-0.161 0.359-0.359 0.359z"></path>
<path fill="#7bd8f7" style="fill: var(--color4, #7bd8f7)" d="M19.574 30.431c-0.198 0-0.359-0.161-0.359-0.359v-3.353c0-0.198 0.161-0.359 0.359-0.359s0.359 0.161 0.359 0.359v3.353c0 0.199-0.161 0.359-0.359 0.359z"></path>
<path fill="#7bd8f7" style="fill: var(--color4, #7bd8f7)" d="M12.39 30.431c-0.198 0-0.359-0.161-0.359-0.359v-3.353c0-0.198 0.161-0.359 0.359-0.359s0.359 0.161 0.359 0.359v3.353c-0 0.199-0.161 0.359-0.359 0.359z"></path>
<path fill="#7bd8f7" style="fill: var(--color4, #7bd8f7)" d="M8.797 26.839c-0.198 0-0.359-0.161-0.359-0.359v-3.353c0-0.198 0.161-0.359 0.359-0.359s0.359 0.161 0.359 0.359v3.353c0 0.199-0.161 0.359-0.359 0.359z"></path>
</symbol>
<symbol id="thunder-rain" viewBox="0 0 32 32">
<path fill="#62c3f7" style="fill: var(--color2, #62c3f7)" d="M3.504 10.515c-0.012-0.18-0.020-0.361-0.020-0.544 0-4.466 3.62-8.086 8.086-8.086 3.231 0 6.018 1.895 7.313 4.634 0.975-0.693 2.164-1.104 3.452-1.104 2.979 0 5.441 2.182 5.893 5.033 2.051 0.561 3.56 2.433 3.56 4.661 0 2.672-2.166 4.838-4.838 4.838h-21.936c-2.672 0-4.838-2.166-4.838-4.838 0-2.144 1.397-3.96 3.328-4.594z"></path>
<path fill="#7bd8f7" style="fill: var(--color4, #7bd8f7)" d="M23.167 26.839c-0.198 0-0.359-0.161-0.359-0.359v-3.353c0-0.198 0.161-0.359 0.359-0.359s0.359 0.161 0.359 0.359v3.353c-0 0.199-0.161 0.359-0.359 0.359z"></path>
<path fill="#7bd8f7" style="fill: var(--color4, #7bd8f7)" d="M19.574 30.431c-0.198 0-0.359-0.161-0.359-0.359v-3.353c0-0.198 0.161-0.359 0.359-0.359s0.359 0.161 0.359 0.359v3.353c0 0.199-0.161 0.359-0.359 0.359z"></path>
<path fill="#7bd8f7" style="fill: var(--color4, #7bd8f7)" d="M15.982 26.839c-0.198 0-0.359-0.161-0.359-0.359v-3.353c0-0.198 0.161-0.359 0.359-0.359s0.359 0.161 0.359 0.359v3.353c0 0.199-0.161 0.359-0.359 0.359z"></path>
<path fill="#7bd8f7" style="fill: var(--color4, #7bd8f7)" d="M12.39 30.431c-0.198 0-0.359-0.161-0.359-0.359v-3.353c0-0.198 0.161-0.359 0.359-0.359s0.359 0.161 0.359 0.359v3.353c-0 0.199-0.161 0.359-0.359 0.359z"></path>
<path fill="#7bd8f7" style="fill: var(--color4, #7bd8f7)" d="M8.797 26.839c-0.198 0-0.359-0.161-0.359-0.359v-3.353c0-0.198 0.161-0.359 0.359-0.359s0.359 0.161 0.359 0.359v3.353c0 0.199-0.161 0.359-0.359 0.359z"></path>
<path fill="#f9c100" style="fill: var(--color1, #f9c100)" d="M13.306 11.282l-1.883 5.216h2.603l-2.722 7.77 9.357-10.049-3.249 0.074 1.942-3.010h-6.049z"></path>
</symbol>
<symbol id="thunder-showers-day" viewBox="0 0 32 32">
<path fill="#62c3f7" style="fill: var(--color2, #62c3f7)" d="M3.504 9.078c-0.012-0.18-0.020-0.361-0.020-0.544 0-4.466 3.62-8.086 8.086-8.086 3.231 0 6.018 1.895 7.313 4.634 0.975-0.693 2.164-1.104 3.452-1.104 2.979 0 5.441 2.182 5.893 5.033 2.051 0.561 3.56 2.433 3.56 4.662 0 2.672-2.166 4.838-4.838 4.838h-21.936c-2.672-0-4.838-2.166-4.838-4.838 0-2.144 1.397-3.96 3.328-4.595z"></path>
<path fill="#7bd8f7" style="fill: var(--color4, #7bd8f7)" d="M3.946 25.402c-0.039 0-0.078-0.006-0.117-0.020-0.188-0.065-0.287-0.269-0.222-0.457l1.156-3.353c0.064-0.187 0.268-0.288 0.457-0.222 0.188 0.065 0.287 0.269 0.222 0.457l-1.156 3.353c-0.051 0.149-0.19 0.242-0.339 0.242z"></path>
<path fill="#7bd8f7" style="fill: var(--color4, #7bd8f7)" d="M1.716 31.868c-0.039 0-0.078-0.006-0.117-0.020-0.188-0.065-0.287-0.269-0.222-0.457l1.156-3.353c0.064-0.188 0.268-0.288 0.457-0.222 0.188 0.065 0.287 0.269 0.222 0.457l-1.156 3.353c-0.051 0.149-0.19 0.242-0.339 0.242z"></path>
<path fill="#7bd8f7" style="fill: var(--color4, #7bd8f7)" d="M6.299 28.995c-0.039 0-0.078-0.006-0.117-0.020-0.188-0.065-0.287-0.269-0.222-0.457l1.156-3.353c0.064-0.188 0.267-0.288 0.457-0.222 0.188 0.065 0.287 0.269 0.222 0.457l-1.156 3.353c-0.051 0.149-0.19 0.242-0.34 0.242z"></path>
<path fill="#7bd8f7" style="fill: var(--color4, #7bd8f7)" d="M8.901 31.868c-0.039 0-0.078-0.006-0.117-0.020-0.188-0.065-0.287-0.269-0.222-0.457l1.156-3.353c0.064-0.188 0.268-0.288 0.457-0.222 0.188 0.065 0.287 0.269 0.222 0.457l-1.156 3.353c-0.051 0.149-0.19 0.242-0.339 0.242z"></path>
<path fill="#7bd8f7" style="fill: var(--color4, #7bd8f7)" d="M13.484 28.995c-0.039 0-0.078-0.006-0.117-0.020-0.188-0.065-0.287-0.269-0.222-0.457l1.156-3.353c0.064-0.188 0.267-0.288 0.457-0.222 0.188 0.065 0.287 0.269 0.222 0.457l-1.156 3.353c-0.051 0.149-0.19 0.242-0.339 0.242z"></path>
<path fill="#7bd8f7" style="fill: var(--color4, #7bd8f7)" d="M18.315 25.402c-0.039 0-0.078-0.006-0.117-0.020-0.187-0.065-0.287-0.269-0.222-0.457l1.156-3.353c0.065-0.188 0.268-0.287 0.457-0.222 0.187 0.065 0.287 0.269 0.222 0.457l-1.156 3.353c-0.051 0.149-0.19 0.242-0.339 0.242z"></path>
<path fill="#7bd8f7" style="fill: var(--color4, #7bd8f7)" d="M16.085 31.868c-0.039 0-0.078-0.006-0.117-0.020-0.188-0.065-0.287-0.269-0.222-0.457l1.156-3.353c0.065-0.188 0.269-0.287 0.457-0.222s0.287 0.269 0.222 0.457l-1.156 3.353c-0.051 0.149-0.19 0.242-0.339 0.242z"></path>
<path fill="#7bd8f7" style="fill: var(--color4, #7bd8f7)" d="M20.668 28.995c-0.039 0-0.078-0.006-0.117-0.020-0.187-0.065-0.287-0.269-0.222-0.457l1.156-3.353c0.065-0.187 0.268-0.287 0.457-0.222 0.187 0.065 0.287 0.269 0.222 0.457l-1.156 3.353c-0.051 0.149-0.19 0.242-0.339 0.242z"></path>
<path fill="#7bd8f7" style="fill: var(--color4, #7bd8f7)" d="M25.5 25.402c-0.039 0-0.078-0.006-0.117-0.020-0.187-0.065-0.287-0.269-0.222-0.457l1.156-3.353c0.065-0.188 0.269-0.287 0.457-0.222s0.287 0.269 0.222 0.457l-1.156 3.353c-0.051 0.149-0.19 0.242-0.339 0.242z"></path>
<path fill="#7bd8f7" style="fill: var(--color4, #7bd8f7)" d="M23.27 31.868c-0.039 0-0.078-0.006-0.117-0.020-0.187-0.065-0.287-0.269-0.222-0.457l1.156-3.353c0.065-0.188 0.269-0.287 0.457-0.222s0.287 0.269 0.222 0.457l-1.156 3.353c-0.051 0.149-0.19 0.242-0.339 0.242z"></path>
<path fill="#f9c100" style="fill: var(--color1, #f9c100)" d="M13.306 11.282l-1.883 5.216h2.603l-2.722 7.77 9.357-10.049-3.249 0.074 1.942-3.010h-6.049z"></path>
</symbol>
<symbol id="wind" viewBox="0 0 32 32">
<path fill="#4390b3" style="fill: var(--color5, #4390b3)" d="M21.049 18.481h-19.726c-0.628 0-1.137 0.509-1.137 1.137s0.509 1.137 1.137 1.137h19.726c1.527 0 2.77 1.243 2.77 2.77s-1.243 2.77-2.77 2.77c-0.628 0-1.137 0.509-1.137 1.137s0.509 1.137 1.137 1.137c2.781 0 5.044-2.262 5.044-5.044s-2.262-5.044-5.044-5.044z"></path>
<path fill="#4390b3" style="fill: var(--color5, #4390b3)" d="M26.734 13.483h-25.41c-0.628 0-1.137-0.509-1.137-1.137s0.509-1.137 1.137-1.137h25.41c1.527 0 2.77-1.242 2.77-2.77s-1.243-2.77-2.77-2.77c-0.628 0-1.137-0.509-1.137-1.137s0.509-1.137 1.137-1.137c2.781 0 5.044 2.262 5.044 5.044s-2.262 5.044-5.044 5.044z"></path>
<path fill="#7bd8f7" style="fill: var(--color4, #7bd8f7)" d="M21.931 16.187h-21.407c-0.198 0-0.359-0.161-0.359-0.359s0.161-0.359 0.359-0.359h21.407c0.198 0 0.359 0.161 0.359 0.359s-0.161 0.359-0.359 0.359z"></path>
<path fill="#7bd8f7" style="fill: var(--color4, #7bd8f7)" d="M21.931 8.948h-15.776c-0.198 0-0.359-0.161-0.359-0.359s0.161-0.359 0.359-0.359h15.776c0.198 0 0.359 0.161 0.359 0.359s-0.161 0.359-0.359 0.359z"></path>
<path fill="#7bd8f7" style="fill: var(--color4, #7bd8f7)" d="M17.909 23.427h-11.352c-0.198 0-0.359-0.161-0.359-0.359s0.161-0.359 0.359-0.359h11.352c0.198 0 0.359 0.161 0.359 0.359s-0.161 0.359-0.359 0.359z"></path>
</symbol>
</defs>
</svg>
