<svg aria-hidden="true" style="position: absolute; width: 0; height: 0; overflow: hidden;" version="1.1" xmlns="http://www.w3.org/2000/svg" xmlns:xlink="http://www.w3.org/1999/xlink">
<defs>
<symbol id="zoom-in" viewBox="0 0 64 64">
<path d="M62.016 54.462l-15.16-12.893c-1.567-1.41-3.243-2.058-4.597-1.995 3.578-4.192 5.74-9.63 5.74-15.573 0-13.255-10.745-24-24-24s-24 10.745-24 24 10.745 24 24 24c5.944 0 11.382-2.162 15.574-5.74-0.063 1.354 0.585 3.030 1.995 4.597l12.893 15.16c2.208 2.453 5.814 2.66 8.014 0.46s1.993-5.806-0.46-8.014zM24 40c-8.836 0-16-7.163-16-16s7.163-16 16-16 16 7.163 16 16-7.163 16-16 16zM28 12h-8v8h-8v8h8v8h8v-8h8v-8h-8z"></path>
</symbol>
<symbol id="backward2" viewBox="0 0 64 64">
<path d="M36 10v20l20-20v44l-20-20v20l-22-22z"></path>
</symbol>
<symbol id="forward3" viewBox="0 0 64 64">
<path d="M32 54v-20l-20 20v-44l20 20v-20l22 22z"></path>
</symbol>
<symbol id="first" viewBox="0 0 64 64">
<path d="M8 56v-48h8v22l20-20v20l20-20v44l-20-20v20l-20-20v22z"></path>
</symbol>
<symbol id="last" viewBox="0 0 64 64">
<path d="M56 8v48h-8v-22l-20 20v-20l-20 20v-44l20 20v-20l20 20v-22z"></path>
</symbol>
<symbol id="previous2" viewBox="0 0 64 64">
<path d="M16 56v-48h8v22l20-20v44l-20-20v22z"></path>
</symbol>
<symbol id="next2" viewBox="0 0 64 64">
<path d="M48 8v48h-8v-22l-20 20v-44l20 20v-22z"></path>
</symbol>
<symbol id="arrow-up" viewBox="0 0 64 64">
<path d="M32 2l-30 30h18v32h24v-32h18z"></path>
</symbol>
<symbol id="arrow-right" viewBox="0 0 64 64">
<path d="M62 32l-30-30v18h-32v24h32v18z"></path>
</symbol>
<symbol id="arrow-down" viewBox="0 0 64 64">
<path d="M32 62l30-30h-18v-32h-24v32h-18z"></path>
</symbol>
<symbol id="arrow-left" viewBox="0 0 64 64">
<path d="M2 32l30 30v-18h32v-24h-32v-18z"></path>
</symbol>
<symbol id="arrow-up2" viewBox="0 0 64 64">
<path d="M54.828 25.172l-20-20c-1.562-1.562-4.095-1.562-5.657 0l-20 20c-1.562 1.562-1.562 4.095 0 5.657s4.095 1.562 5.657 0l13.171-13.172v38.343c0 2.209 1.791 4 4 4s4-1.791 4-4v-38.343l13.172 13.172c0.781 0.781 1.805 1.172 2.828 1.172s2.047-0.39 2.828-1.172c1.562-1.562 1.562-4.095 0-5.657z"></path>
</symbol>
<symbol id="arrow-right2" viewBox="0 0 64 64">
<path d="M38.828 54.828l20-20c1.562-1.562 1.562-4.095 0-5.657l-20-20c-1.562-1.562-4.095-1.562-5.657 0s-1.562 4.095 0 5.657l13.172 13.172h-38.343c-2.209 0-4 1.791-4 4s1.791 4 4 4h38.343l-13.172 13.172c-0.781 0.781-1.172 1.805-1.172 2.828s0.391 2.047 1.172 2.828c1.562 1.562 4.095 1.562 5.657 0z"></path>
</symbol>
<symbol id="arrow-down2" viewBox="0 0 64 64">
<path d="M54.828 38.828l-20 20c-1.562 1.562-4.095 1.562-5.657 0l-20-20c-1.562-1.562-1.562-4.095 0-5.657s4.095-1.562 5.657 0l13.171 13.172v-38.343c0-2.209 1.791-4 4-4s4 1.791 4 4v38.343l13.172-13.172c0.781-0.781 1.805-1.172 2.828-1.172s2.047 0.391 2.828 1.172c1.562 1.562 1.562 4.095 0 5.657z"></path>
</symbol>
<symbol id="arrow-left2" viewBox="0 0 64 64">
<path d="M25.172 54.828l-20-20c-1.562-1.562-1.562-4.095 0-5.657l20-20c1.562-1.562 4.095-1.562 5.657 0s1.562 4.095 0 5.657l-13.172 13.172h38.343c2.209 0 4 1.791 4 4s-1.791 4-4 4h-38.343l13.172 13.172c0.781 0.781 1.172 1.805 1.172 2.828s-0.39 2.047-1.172 2.828c-1.562 1.562-4.095 1.562-5.657 0z"></path>
</symbol>
<symbol id="circle-up" viewBox="0 0 64 64">
<path d="M0 32c0 17.673 14.327 32 32 32s32-14.327 32-32-14.327-32-32-32-32 14.327-32 32zM58 32c0 14.359-11.641 26-26 26s-26-11.641-26-26 11.641-26 26-26 26 11.641 26 26z"></path>
<path d="M44.172 41.828l5.657-5.657-17.828-17.828-17.828 17.828 5.657 5.657 12.172-12.172z"></path>
</symbol>
<symbol id="circle-right" viewBox="0 0 64 64">
<path d="M32 0c-17.673 0-32 14.327-32 32s14.327 32 32 32 32-14.327 32-32-14.327-32-32-32zM32 58c-14.359 0-26-11.641-26-26s11.641-26 26-26 26 11.641 26 26-11.641 26-26 26z"></path>
<path d="M22.172 44.172l5.657 5.657 17.828-17.828-17.828-17.828-5.657 5.657 12.171 12.172z"></path>
</symbol>
<symbol id="circle-down" viewBox="0 0 64 64">
<path d="M64 32c0-17.673-14.327-32-32-32s-32 14.327-32 32 14.327 32 32 32 32-14.327 32-32zM6 32c0-14.359 11.641-26 26-26s26 11.641 26 26-11.641 26-26 26-26-11.641-26-26z"></path>
<path d="M19.828 22.172l-5.657 5.657 17.828 17.828 17.828-17.828-5.657-5.657-12.172 12.171z"></path>
</symbol>
<symbol id="circle-left" viewBox="0 0 64 64">
<path d="M32 64c17.673 0 32-14.327 32-32s-14.327-32-32-32-32 14.327-32 32 14.327 32 32 32zM32 6c14.359 0 26 11.641 26 26s-11.641 26-26 26-26-11.641-26-26 11.641-26 26-26z"></path>
<path d="M41.828 19.828l-5.657-5.657-17.828 17.828 17.828 17.828 5.657-5.657-12.172-12.172z"></path>
</symbol>
<symbol id="google" viewBox="0 0 64 64">
<path d="M32.638 27.425v10.975h18.15c-0.737 4.712-5.487 13.8-18.15 13.8-10.925 0-19.837-9.050-19.837-20.2s8.913-20.2 19.837-20.2c6.212 0 10.375 2.65 12.75 4.938l8.688-8.363c-5.575-5.225-12.8-8.375-21.438-8.375-17.688 0-32 14.313-32 32s14.313 32 32 32c18.462 0 30.725-12.987 30.725-31.263 0-2.1-0.225-3.7-0.5-5.3l-30.225-0.012z"></path>
</symbol>
<symbol id="google2" viewBox="0 0 64 64">
<path d="M58 0h-52c-3.3 0-6 2.7-6 6v52c0 3.3 2.7 6 6 6h52c3.3 0 6-2.7 6-6v-52c0-3.3-2.7-6-6-6zM32.475 56c-13.262 0-24-10.737-24-24s10.738-24 24-24c6.475 0 11.9 2.363 16.075 6.275l-6.513 6.275c-1.788-1.712-4.9-3.7-9.563-3.7-8.2 0-14.875 6.788-14.875 15.15s6.688 15.15 14.875 15.15c9.5 0 13.063-6.825 13.612-10.35h-13.612v-8.225h22.663c0.2 1.2 0.375 2.4 0.375 3.975 0.013 13.712-9.175 23.45-23.038 23.45z"></path>
</symbol>
<symbol id="google3" viewBox="0 0 64 64">
<path d="M32 0c-17.675 0-32 14.325-32 32s14.325 32 32 32 32-14.325 32-32-14.325-32-32-32zM32.475 56c-13.262 0-24-10.737-24-24s10.738-24 24-24c6.475 0 11.9 2.363 16.075 6.275l-6.513 6.275c-1.788-1.712-4.9-3.7-9.563-3.7-8.2 0-14.875 6.788-14.875 15.15s6.688 15.15 14.875 15.15c9.5 0 13.063-6.825 13.612-10.35h-13.612v-8.225h22.663c0.2 1.2 0.375 2.4 0.375 3.975 0.013 13.712-9.175 23.45-23.038 23.45z"></path>
</symbol>
<symbol id="facebook" viewBox="0 0 64 64">
<path d="M38 12h10v-12h-10c-7.72 0-14 6.28-14 14v6h-8v12h8v32h12v-32h10l2-12h-12v-6c0-1.084 0.916-2 2-2z"></path>
</symbol>
<symbol id="facebook2" viewBox="0 0 64 64">
<path d="M58 0h-52c-3.3 0-6 2.7-6 6v52c0 3.3 2.7 6 6 6h26v-28h-8v-8h8v-4c0-6.613 5.388-12 12-12h8v8h-8c-2.2 0-4 1.8-4 4v4h12l-2 8h-10v28h18c3.3 0 6-2.7 6-6v-52c0-3.3-2.7-6-6-6z"></path>
</symbol>
<symbol id="github" viewBox="0 0 64 64">
<path d="M32.001 0.79c-17.671 0-32.001 14.326-32.001 32 0 14.138 9.169 26.133 21.884 30.365 1.599 0.296 2.187-0.694 2.187-1.539 0-0.763-0.030-3.284-0.044-5.958-8.903 1.936-10.781-3.776-10.781-3.776-1.455-3.699-3.553-4.682-3.553-4.682-2.903-1.986 0.219-1.945 0.219-1.945 3.213 0.226 4.905 3.298 4.905 3.298 2.855 4.892 7.486 3.477 9.313 2.66 0.287-2.068 1.116-3.48 2.032-4.279-7.108-0.809-14.58-3.553-14.58-15.815 0-3.494 1.25-6.348 3.297-8.589-0.332-0.806-1.428-4.061 0.309-8.469 0 0 2.688-0.86 8.802 3.281 2.552-0.709 5.29-1.065 8.010-1.077 2.719 0.012 5.459 0.368 8.016 1.077 6.108-4.14 8.791-3.281 8.791-3.281 1.742 4.408 0.647 7.663 0.315 8.469 2.051 2.241 3.293 5.096 3.293 8.589 0 12.291-7.486 14.997-14.612 15.789 1.148 0.993 2.17 2.94 2.17 5.926 0 4.282-0.037 7.728-0.037 8.782 0 0.852 0.576 1.85 2.198 1.535 12.708-4.236 21.865-16.227 21.865-30.361 0-17.674-14.327-32-32-32z"></path>
</symbol>
<symbol id="linkedin" viewBox="0 0 64 64">
<path d="M58 0h-52c-3.3 0-6 2.7-6 6v52c0 3.3 2.7 6 6 6h52c3.3 0 6-2.7 6-6v-52c0-3.3-2.7-6-6-6zM24 52h-8v-28h8v28zM20 20c-2.212 0-4-1.788-4-4s1.788-4 4-4c2.212 0 4 1.787 4 4s-1.788 4-4 4zM52 52h-8v-16c0-2.212-1.788-4-4-4s-4 1.788-4 4v16h-8v-28h8v4.962c1.65-2.262 4.175-4.962 7-4.962 4.975 0 9 4.475 9 10v18z"></path>
</symbol>
<symbol id="file-pdf" viewBox="0 0 64 64">
<path d="M52.626 36.843c-0.853-0.84-2.745-1.285-5.623-1.323-1.949-0.022-4.294 0.15-6.761 0.495-1.105-0.637-2.243-1.331-3.137-2.166-2.404-2.245-4.41-5.361-5.661-8.787 0.081-0.32 0.151-0.601 0.215-0.888 0 0 1.354-7.691 0.996-10.292-0.050-0.357-0.080-0.46-0.175-0.737l-0.118-0.302c-0.368-0.85-1.090-1.75-2.223-1.7l-0.682-0.021c-1.263 0-2.291 0.646-2.562 1.611-0.821 3.027 0.026 7.556 1.561 13.421l-0.393 0.955c-1.099 2.68-2.477 5.379-3.692 7.76l-0.158 0.31c-1.279 2.502-2.439 4.627-3.491 6.426l-1.086 0.574c-0.079 0.042-1.94 1.026-2.377 1.29-3.704 2.211-6.158 4.721-6.565 6.714-0.13 0.636-0.033 1.449 0.626 1.826l1.050 0.529c0.456 0.228 0.936 0.344 1.428 0.344 2.638 0 5.7-3.286 9.919-10.648 4.871-1.586 10.416-2.904 15.276-3.631 3.704 2.086 8.259 3.534 11.134 3.534 0.511 0 0.951-0.049 1.308-0.143 0.551-0.146 1.016-0.461 1.3-0.887 0.558-0.84 0.671-1.996 0.52-3.18-0.045-0.351-0.326-0.786-0.629-1.083zM13.228 50.878c0.481-1.315 2.385-3.915 5.2-6.222 0.177-0.144 0.613-0.552 1.012-0.931-2.944 4.695-4.915 6.567-6.213 7.154zM29.902 12.48c0.848 0 1.33 2.137 1.37 4.141s-0.429 3.41-1.010 4.451c-0.481-1.541-0.714-3.969-0.714-5.556 0 0-0.035-3.035 0.354-3.035v0zM24.928 39.843c0.591-1.057 1.205-2.172 1.833-3.355 1.531-2.895 2.497-5.16 3.217-7.022 1.432 2.605 3.215 4.82 5.312 6.594 0.262 0.221 0.539 0.444 0.83 0.666-4.263 0.843-7.948 1.869-11.192 3.116v0zM51.806 39.603c-0.26 0.162-1.003 0.256-1.482 0.256-1.544 0-3.455-0.706-6.133-1.854 1.029-0.076 1.973-0.115 2.819-0.115 1.549 0 2.008-0.007 3.522 0.38s1.534 1.171 1.274 1.333v0z"></path>
<path d="M57.363 14.317c-1.388-1.893-3.323-4.106-5.449-6.231s-4.338-4.060-6.231-5.449c-3.223-2.364-4.787-2.637-5.683-2.637h-31c-2.757 0-5 2.243-5 5v54c0 2.757 2.243 5 5 5h46c2.757 0 5-2.243 5-5v-39c0-0.896-0.273-2.459-2.637-5.683v0zM49.086 10.914c1.919 1.919 3.425 3.65 4.536 5.086h-9.622v-9.622c1.436 1.111 3.167 2.617 5.086 4.536v0zM56 59c0 0.542-0.458 1-1 1h-46c-0.542 0-1-0.458-1-1v-54c0-0.542 0.458-1 1-1 0 0 30.997-0 31 0v14c0 1.105 0.895 2 2 2h14v39z"></path>
</symbol>
</defs>
</svg>
